<svg xmlns="http://www.w3.org/2000/svg" width="24" height="24" fill="none" viewBox="0 0 24 24">
    <path stroke="#fd6481" stroke-linecap="round" stroke-linejoin="round" stroke-miterlimit="1.5" d="M11.94 22.88c6.042 0 10.94-4.898 10.94-10.94S17.982 1 11.94 1 1 5.898 1 11.94s4.898 10.94 10.94 10.94z"/>
    <path stroke="#fd6481" stroke-linecap="round" stroke-linejoin="round" stroke-miterlimit="1.5" d="M3.672 19.078c2.007-2.315 4.969-3.781 8.27-3.781 3.292 0 6.246 1.457 8.253 3.76M11.938 15.293c2.047 0 3.707-1.66 3.707-3.707 0-2.047-1.66-3.707-3.707-3.707-2.048 0-3.708 1.66-3.708 3.707 0 2.048 1.66 3.707 3.708 3.707z"/>
</svg>
