<svg xmlns="http://www.w3.org/2000/svg" width="24" height="24" fill="none" viewBox="0 0 24 24">
    <path fill="#fd6481" d="M22.772 9.48l-1.685-.285c-.175-.567-.401-1.113-.677-1.635l.993-1.388c.421-.592.356-1.4-.16-1.91l-1.494-1.495c-.281-.28-.652-.436-1.048-.436-.311 0-.607.096-.858.276L16.45 3.6c-.542-.286-1.108-.522-1.695-.697l-.28-1.665C14.353.521 13.736 0 13.01 0H10.9c-.728 0-1.344.521-1.464 1.238l-.291 1.705c-.562.175-1.108.406-1.63.687l-1.378-.993c-.251-.18-.552-.276-.863-.276-.396 0-.772.156-1.048.437L2.727 4.292c-.511.511-.581 1.318-.16 1.91L3.57 7.61c-.276.526-.497 1.073-.667 1.64l-1.665.28C.521 9.65 0 10.268 0 10.995v2.11c0 .727.521 1.344 1.238 1.464l1.705.291c.175.562.406 1.108.687 1.63l-.988 1.373c-.421.592-.356 1.4.16 1.91l1.495 1.495c.28.28.651.436 1.047.436.311 0 .607-.096.858-.276l1.409-1.003c.506.266 1.037.482 1.584.652l.28 1.685c.121.717.738 1.238 1.465 1.238h2.115c.727 0 1.344-.521 1.464-1.238l.286-1.685c.567-.175 1.113-.401 1.634-.677l1.39.993c.25.18.55.276.862.276.396 0 .767-.156 1.047-.436l1.495-1.495c.51-.51.581-1.318.16-1.91l-.993-1.393c.276-.527.507-1.073.677-1.635l1.685-.28c.717-.121 1.238-.738 1.238-1.465v-2.11c.01-.727-.511-1.344-1.228-1.464zm-.116 3.575c0 .066-.045.12-.11.13l-2.106.352c-.265.045-.476.24-.541.496-.19.737-.481 1.444-.873 2.1-.135.231-.125.517.03.738l1.239 1.744c.035.05.03.126-.015.17l-1.494 1.495c-.035.035-.07.04-.095.04-.03 0-.055-.01-.076-.025l-1.74-1.238c-.215-.156-.506-.166-.736-.03-.657.39-1.364.681-2.101.872-.26.065-.456.28-.496.541l-.356 2.106c-.01.065-.066.11-.13.11h-2.111c-.066 0-.12-.045-.13-.11l-.352-2.106c-.045-.265-.24-.476-.496-.541-.717-.186-1.409-.471-2.056-.842-.105-.06-.225-.09-.34-.09-.136 0-.276.04-.392.125L5.425 20.34c-.025.015-.05.025-.076.025-.02 0-.06-.005-.095-.04L3.76 18.831c-.045-.045-.05-.115-.015-.17l1.233-1.73c.156-.22.166-.512.03-.742-.39-.652-.691-1.359-.882-2.096-.07-.255-.28-.451-.541-.496l-2.121-.361c-.065-.01-.11-.065-.11-.13v-2.111c0-.065.045-.12.11-.13l2.09-.351c.266-.046.482-.241.547-.502.186-.737.471-1.449.857-2.106.136-.23.12-.516-.035-.732L3.675 5.42c-.035-.05-.03-.126.015-.17l1.494-1.495c.035-.035.07-.04.095-.04.03 0 .055.01.075.025l1.73 1.233c.22.156.512.166.742.03.652-.39 1.359-.691 2.096-.882.256-.07.451-.28.496-.541l.361-2.121c.01-.065.065-.11.13-.11h2.111c.065 0 .12.045.13.11l.352 2.09c.045.266.24.482.5.547.758.19 1.48.486 2.152.882.23.136.516.126.737-.03l1.73-1.243c.024-.015.05-.025.075-.025.02 0 .06.005.095.04l1.494 1.494c.045.045.05.115.015.17l-1.238 1.74c-.156.216-.166.507-.03.737.39.657.681 1.364.872 2.101.065.26.28.456.541.496l2.106.356c.065.01.11.066.11.13v2.111h-.005z"/>
    <path fill="#fd6481" d="M12.003 6.817c-2.858 0-5.18 2.321-5.18 5.18 0 2.857 2.322 5.178 5.18 5.178 2.857 0 5.179-2.321 5.179-5.179s-2.322-5.179-5.18-5.179zm0 9.005c-2.111 0-3.826-1.715-3.826-3.826 0-2.11 1.715-3.825 3.826-3.825 2.11 0 3.825 1.714 3.825 3.825 0 2.11-1.715 3.825-3.825 3.825z"/>
</svg>
