<svg xmlns="http://www.w3.org/2000/svg" width="24" height="24" fill="none" viewBox="0 0 24 24">
    <path fill="#8689a4" fill-rule="evenodd" d="M9.961 11.272H1.157c-.64 0-1.157-.527-1.157-1.178V1.177C0 .527.518 0 1.157 0H9.96c.64 0 1.157.527 1.157 1.177v8.947c-.016.638-.529 1.148-1.157 1.148zM1.157 1.104l-.073 9.02 8.863.073c.04 0 .072-.032.072-.073V1.177l-8.862-.073zm21.686 10.168h-8.79c-.639 0-1.157-.527-1.157-1.178V1.177c0-.65.518-1.177 1.157-1.177h8.79C23.482 0 24 .527 24 1.177v8.947c-.016.638-.53 1.148-1.157 1.148zm-8.79-10.168l-.073 9.02 8.863.073c.04 0 .072-.032.072-.073V1.177l-8.862-.073zM1.157 24H9.96c.31 0 .606-.126.823-.35.218-.224.338-.527.334-.842v-8.947c0-.65-.518-1.177-1.157-1.177H1.157c-.64 0-1.157.527-1.157 1.177v8.962c0 .312.122.611.339.832.217.221.51.345.818.345zm-.073-1.192l.073-9.02 8.862.073v8.947c0 .04-.032.074-.072.074l-8.863-.074zM22.844 24h-8.791c-.307 0-.601-.124-.818-.345-.217-.22-.339-.52-.339-.832V13.86c0-.65.518-1.177 1.157-1.177h8.79c.639 0 1.157.527 1.157 1.177v8.947c.004.315-.116.618-.334.842-.217.224-.514.35-.823.35zm-8.791-10.212l-.073 9.02 8.863.074c.04 0 .072-.033.072-.074v-8.947l-8.862-.073z" clip-rule="evenodd"/>
</svg>
