<svg xmlns="http://www.w3.org/2000/svg" width="24" height="24" fill="none" viewBox="0 0 24 24">
    <path fill="#A4A8C0" fill-rule="evenodd" d="M23.76 11.393L22.043 9.68 12.607.25c-.335-.335-.878-.335-1.213 0L1.957 9.68.24 11.394c-.33.34-.32.883.02 1.212.333.321.86.321 1.193 0l.25-.252v10.789c0 .473.385.857.858.857h18.875c.474 0 .858-.384.858-.857V12.354l.251.252c.34.328.884.319 1.213-.021.321-.333.321-.86 0-1.192zm-8.803 11.364H8.999v-7.7h5.958v7.7zm1.332.052h4.737V10.62L12 1.746l-8.87 8.875v12.188h4.58V14.57c0-.473.384-.857.858-.857h6.863c.474 0 .858.384.858.857v8.238z" clip-rule="evenodd"/>
</svg>
