<svg xmlns="http://www.w3.org/2000/svg" width="24" height="24" fill="none" viewBox="0 0 24 24">
    <path fill="#fff" d="M0 0H24V24H0z"/>
    <path stroke="#8689A4" stroke-linecap="round" stroke-linejoin="round" stroke-miterlimit="1.5" d="M8.344 10.135V5.207c0-2.046 1.661-3.707 3.707-3.707s3.707 1.661 3.707 3.707v4.928"/>
    <path fill-rule="evenodd" stroke="#8689A4" stroke-linecap="round" stroke-linejoin="round" stroke-miterlimit="1.5" d="M20.314 12.422c0-.606-.241-1.187-.67-1.616-.428-.428-1.01-.67-1.616-.67H6.077c-.606 0-1.188.242-1.616.67-.429.429-.67 1.01-.67 1.617v7.78c0 .606.241 1.187.67 1.616.428.429 1.01.67 1.616.67h11.95c.607 0 1.189-.241 1.617-.67.429-.429.67-1.01.67-1.616v-7.78z" clip-rule="evenodd"/>
    <path fill="#8689A4" d="M7.464 17.23c.527 0 .954-.427.954-.954 0-.527-.427-.954-.954-.954-.527 0-.954.428-.954.954 0 .527.427.955.954.955zM10.523 17.23c.527 0 .954-.427.954-.954 0-.527-.428-.954-.954-.954-.527 0-.955.428-.955.954 0 .527.428.955.955.955zM13.581 17.213c.527 0 .954-.427.954-.954 0-.527-.427-.954-.954-.954-.527 0-.954.427-.954.954 0 .527.427.954.954.954zM16.64 17.313c.527 0 .954-.428.954-.954 0-.528-.427-.955-.954-.955-.527 0-.955.428-.955.954 0 .527.428.955.955.955z"/>
</svg>
